<svg width="42" height="49" viewBox="0 0 42 49" fill="none" xmlns="http://www.w3.org/2000/svg">
<path d="M24.1512 9.36708L22.6569 9.23635C20.5977 9.0562 18.7746 10.5846 18.5943 12.6452L18.1302 17.95C17.8924 17.8795 17.6451 17.8323 17.3896 17.8099L15.8953 17.6792C13.8362 17.499 12.013 19.0274 11.8327 21.0881L11.4994 24.8985C11.2616 24.828 11.0143 24.7808 10.7587 24.7584L9.26446 24.6277C7.20532 24.4475 5.38217 25.976 5.20189 28.0366L4.80969 32.5195C4.62941 34.5801 6.15945 36.4019 8.21859 36.582L21.6672 37.7586C23.7264 37.9388 25.5495 36.4104 25.7298 34.3497L27.5601 13.4296C27.7403 11.369 26.2103 9.54724 24.1512 9.36708ZM10.7215 33.7895L8.48006 33.5934C8.06763 33.5574 7.76232 33.1919 7.79828 32.7809L8.19048 28.2981C8.22643 27.8871 8.59057 27.5802 9.00299 27.6163L10.4973 27.747C10.9097 27.7831 11.215 28.1486 11.1791 28.5595L10.7215 33.7895ZM16.6987 34.3125L13.7101 34.051L14.8213 21.3495C14.8573 20.9386 15.2214 20.6317 15.6338 20.6678L17.1281 20.7985C17.5405 20.8346 17.8459 21.2001 17.8099 21.611L16.6987 34.3125ZM22.7412 34.0883C22.7052 34.4992 22.3411 34.8061 21.9287 34.77L19.6872 34.5739L21.5829 12.9067C21.6188 12.4958 21.983 12.1889 22.3954 12.2249L23.8897 12.3557C24.3021 12.3918 24.6074 12.7573 24.5715 13.1682L22.7412 34.0883Z" fill="url(#paint0_linear_1_107)"/>
<path d="M24.6341 27.7083L25.7043 27.6147C27.1789 27.4856 28.4846 28.5802 28.6137 30.0559L28.946 33.8549C29.1163 33.8044 29.2934 33.7706 29.4764 33.7546L30.5465 33.661C32.0212 33.5319 33.3268 34.6265 33.4559 36.1022L33.6947 38.8311C33.865 38.7806 34.0421 38.7468 34.2251 38.7308L35.2952 38.6371C36.7699 38.5081 38.0755 39.6027 38.2046 41.0784L38.4855 44.2888C38.6146 45.7645 37.5189 47.0692 36.0442 47.1982L26.413 48.0408C24.9384 48.1698 23.6327 47.0753 23.5036 45.5996L22.1929 30.6177C22.0637 29.142 23.1595 27.8373 24.6341 27.7083ZM34.2518 45.1984L35.857 45.0579C36.1523 45.0321 36.371 44.7703 36.3452 44.4761L36.0643 41.2657C36.0386 40.9714 35.7778 40.7516 35.4825 40.7774L34.4123 40.871C34.117 40.8969 33.8983 41.1586 33.9241 41.4529L34.2518 45.1984ZM29.9712 45.5729L32.1115 45.3856L31.3157 36.2895C31.2899 35.9952 31.0292 35.7754 30.7338 35.8012L29.6637 35.8949C29.3683 35.9207 29.1497 36.1824 29.1754 36.4767L29.9712 45.5729ZM25.6439 45.4123C25.6696 45.7066 25.9304 45.9264 26.2257 45.9006L27.8309 45.7601L26.4734 30.2432C26.4476 29.9489 26.1869 29.7291 25.8915 29.7549L24.8214 29.8485C24.526 29.8744 24.3074 30.1361 24.3331 30.4304L25.6439 45.4123Z" fill="#FFC52F"/>
<defs>
<linearGradient id="paint0_linear_1_107" x1="-7.87349" y1="5.80122" x2="51.1203" y2="31.5465" gradientUnits="userSpaceOnUse">
<stop stop-color="white"/>
<stop offset="1" stop-color="white" stop-opacity="0"/>
</linearGradient>
</defs>
</svg>
