<svg width="50" height="52" viewBox="0 0 50 52" fill="none" xmlns="http://www.w3.org/2000/svg">
<g clip-path="url(#clip0_1_112)">
<path d="M29.4928 13.2416L29.3066 11.1137C29.0639 8.33956 27.7291 5.77542 25.5959 3.9854C23.4626 2.19538 20.7056 1.32611 17.9314 1.56882C15.1573 1.81153 12.5931 3.14634 10.8031 5.2796C9.0131 7.41286 8.14383 10.1698 8.38654 12.944L8.5727 15.0719C7.29264 15.7692 6.24351 16.8243 5.55361 18.1084C4.86371 19.3924 4.56293 20.8497 4.68806 22.302L5.47246 31.2677C5.64814 33.2483 6.60221 35.0784 8.12541 36.3565C9.64861 37.6346 11.6166 38.2564 13.5976 38.0855L28.5405 36.7782C30.5211 36.6025 32.3512 35.6484 33.6293 34.1252C34.9074 32.602 35.5292 30.6341 35.3583 28.653L34.5739 19.6873C34.445 18.2353 33.8957 16.8525 32.9933 15.7077C32.0909 14.563 30.8745 13.706 29.4928 13.2416ZM11.3751 12.6825C11.2018 10.701 11.8227 8.73172 13.1012 7.20796C14.3798 5.6842 16.2114 4.73077 18.1929 4.55741C20.1745 4.38404 22.1437 5.00495 23.6675 6.28353C25.1912 7.56212 26.1447 9.39365 26.318 11.3752L26.4488 12.8695L11.5059 14.1768L11.3751 12.6825ZM32.3697 28.9145C32.4737 30.1034 32.1012 31.285 31.334 32.1992C30.5669 33.1135 29.468 33.6856 28.279 33.7896L13.3361 35.0969C12.1472 35.2009 10.9656 34.8284 10.0514 34.0612C9.13713 33.2941 8.56507 32.1952 8.46105 31.0062L7.67665 22.0405C7.57263 20.8516 7.94517 19.67 8.71232 18.7557C9.47947 17.8415 10.5784 17.2694 11.7673 17.1654L26.7102 15.8581C27.8992 15.7541 29.0807 16.1266 29.995 16.8938C30.9092 17.6609 31.4813 18.7598 31.5853 19.9488L32.3697 28.9145Z" fill="url(#paint0_linear_1_112)"/>
<path d="M19.7617 22.4889C19.3654 22.5236 18.9991 22.7143 18.7434 23.019C18.4877 23.3238 18.3635 23.7176 18.3982 24.1139L18.6597 27.1025C18.6943 27.4988 18.885 27.8651 19.1898 28.1208C19.4945 28.3766 19.8884 28.5007 20.2847 28.4661C20.681 28.4314 21.0473 28.2407 21.303 27.936C21.5587 27.6312 21.6829 27.2373 21.6482 26.841L21.3868 23.8525C21.3521 23.4561 21.1614 23.0898 20.8567 22.8341C20.5519 22.5784 20.1581 22.4542 19.7617 22.4889Z" fill="url(#paint1_linear_1_112)"/>
</g>
<g clip-path="url(#clip1_1_112)">
<path d="M30.9642 35.3063L31.081 33.9716C31.2332 32.2313 32.0705 30.6229 33.4087 29.5C34.7469 28.3772 36.4763 27.8319 38.2165 27.9841C39.9567 28.1364 41.5652 28.9737 42.6881 30.3119C43.8109 31.65 44.3562 33.3795 44.204 35.1197L44.0872 36.4545C44.8902 36.8919 45.5483 37.5538 45.981 38.3592C46.4138 39.1647 46.6025 40.0788 46.524 40.9898L46.0319 46.614C45.9217 47.8564 45.3233 49.0044 44.3678 49.8061C43.4123 50.6079 42.1778 50.9979 40.9351 50.8907L31.5616 50.0706C30.3191 49.9604 29.1711 49.3619 28.3694 48.4065C27.5676 47.451 27.1776 46.2165 27.2848 44.9738L27.7769 39.3497C27.8578 38.4389 28.2023 37.5714 28.7684 36.8533C29.3344 36.1352 30.0975 35.5977 30.9642 35.3063ZM42.3293 34.9557C42.438 33.7126 42.0485 32.4773 41.2465 31.5215C40.4444 30.5657 39.2955 29.9676 38.0525 29.8588C36.8095 29.7501 35.5742 30.1396 34.6184 30.9416C33.6625 31.7437 33.0644 32.8926 32.9557 34.1356L32.8737 35.0729L42.2472 35.893L42.3293 34.9557ZM29.1595 45.1378C29.0943 45.8836 29.328 46.6248 29.8092 47.1983C30.2904 47.7718 30.9798 48.1307 31.7256 48.1959L41.0991 49.016C41.8449 49.0812 42.5861 48.8475 43.1596 48.3663C43.7331 47.8851 44.092 47.1958 44.1572 46.4499L44.6493 40.8258C44.7145 40.08 44.4808 39.3388 43.9996 38.7653C43.5184 38.1918 42.829 37.833 42.0832 37.7677L32.7097 36.9476C31.9639 36.8824 31.2227 37.1161 30.6492 37.5973C30.0757 38.0785 29.7168 38.7679 29.6516 39.5137L29.1595 45.1378Z" fill="#FFC52F"/>
<path d="M37.0685 41.1071C37.3171 41.1288 37.5469 41.2484 37.7073 41.4396C37.8677 41.6308 37.9456 41.8778 37.9239 42.1264L37.7598 44.0012C37.7381 44.2498 37.6185 44.4795 37.4273 44.6399C37.2361 44.8004 36.9891 44.8783 36.7405 44.8565C36.4919 44.8348 36.2621 44.7151 36.1017 44.524C35.9413 44.3328 35.8634 44.0857 35.8851 43.8371L36.0491 41.9624C36.0709 41.7138 36.1905 41.484 36.3817 41.3236C36.5728 41.1632 36.8199 41.0853 37.0685 41.1071Z" fill="#FFC52F"/>
</g>
<defs>
<linearGradient id="paint0_linear_1_112" x1="-18.3905" y1="3.78143" x2="68.856" y2="28.489" gradientUnits="userSpaceOnUse">
<stop stop-color="white"/>
<stop offset="1" stop-color="white" stop-opacity="0"/>
</linearGradient>
<linearGradient id="paint1_linear_1_112" x1="16.124" y1="22.6463" x2="25.4933" y2="23.9376" gradientUnits="userSpaceOnUse">
<stop stop-color="white"/>
<stop offset="1" stop-color="white" stop-opacity="0"/>
</linearGradient>
<clipPath id="clip0_1_112">
<rect width="36" height="36" fill="white" transform="translate(0 3.13763) rotate(-5)"/>
</clipPath>
<clipPath id="clip1_1_112">
<rect width="22.5825" height="22.5825" fill="white" transform="matrix(-0.996195 -0.0871557 -0.0871557 0.996195 49.4648 28.9682)"/>
</clipPath>
</defs>
</svg>
