<svg width="51" height="51" viewBox="0 0 51 51" fill="none" xmlns="http://www.w3.org/2000/svg">
<g clip-path="url(#clip0_1_102)">
<path d="M37.5626 19.4258C37.7736 21.7767 37.5169 24.146 36.8072 26.3971C36.0976 28.6481 34.949 30.7363 33.4279 32.5411C32.6936 33.4217 31.6543 33.993 30.5173 34.141C29.3804 34.289 28.2294 34.0029 27.2942 33.3397L25.645 32.1484C25.4853 32.0331 25.3498 31.8874 25.2463 31.7197C25.1428 31.552 25.0734 31.3655 25.042 31.171C24.9785 30.7781 25.0737 30.3761 25.3067 30.0534C25.422 29.8937 25.5677 29.7582 25.7354 29.6547C25.9031 29.5512 26.0895 29.4818 26.2841 29.4504C26.677 29.3869 27.079 29.4821 27.4017 29.7151L29.0524 30.9077C29.37 31.134 29.7624 31.2296 30.1485 31.1748C30.5347 31.12 30.885 30.919 31.1271 30.6133C32.4258 29.0462 33.3935 27.2322 33.9718 25.2808C34.5501 23.3294 34.7271 21.281 34.4919 19.2594C34.2568 17.2377 33.6145 15.2846 32.6038 13.518C31.593 11.7514 30.2348 10.208 28.6111 8.98074C26.9167 7.70105 24.9675 6.79964 22.895 6.3373C20.8225 5.87496 18.675 5.86245 16.5973 6.30062C13.831 6.86897 11.2815 8.20732 9.24269 10.1615C7.20385 12.1156 5.75859 14.606 5.07344 17.3458C4.38829 20.0855 4.49114 22.9631 5.37013 25.6469C6.24912 28.3307 7.86849 30.7116 10.0416 32.5152C10.3335 32.7546 10.7048 32.8751 11.0816 32.8527C11.4584 32.8303 11.8129 32.6668 12.0744 32.3946L13.4928 30.9319C13.7701 30.6465 14.1495 30.4829 14.5474 30.4772C14.9453 30.4715 15.3293 30.624 15.6147 30.9014C15.9001 31.1787 16.0637 31.5581 16.0694 31.956C16.0752 32.3539 15.9226 32.7379 15.6452 33.0233L14.2282 34.4844C13.4377 35.294 12.3725 35.778 11.2427 35.8408C10.1129 35.9037 9.00055 35.541 8.12508 34.8241C5.84528 32.9294 4.06869 30.501 2.95312 27.7546C1.83754 25.0083 1.41751 22.0289 1.73034 19.0811C2.04316 16.1333 3.07915 13.3084 4.7463 10.8574C6.41344 8.40627 8.66013 6.40486 11.2868 5.0309C13.9135 3.65693 16.8388 2.95294 19.803 2.98146C22.7672 3.00998 25.6784 3.77012 28.2782 5.19437C30.8779 6.61861 33.0857 8.66288 34.7054 11.1456C36.325 13.6283 37.3065 16.4726 37.5626 19.4258ZM27.5977 13.8335C27.8453 13.5279 27.9629 13.1373 27.9252 12.7458C27.8875 12.3543 27.6976 11.9932 27.3963 11.7404C27.095 11.4876 26.7064 11.3632 26.3143 11.3941C25.9222 11.425 25.558 11.6086 25.2999 11.9055L20.1525 18.0399C19.5021 17.9252 18.8321 18.0283 18.2462 18.3332C17.6604 18.6381 17.1916 19.1278 16.9124 19.7263C16.6333 20.3249 16.5595 20.9988 16.7024 21.6436C16.8453 22.2883 17.197 22.8679 17.7029 23.2924C18.2089 23.717 18.8407 23.9627 19.5005 23.9915C20.1603 24.0203 20.8112 23.8305 21.3521 23.4517C21.8931 23.0729 22.294 22.5261 22.4925 21.8962C22.6911 21.2664 22.6762 20.5886 22.4503 19.968L27.5977 13.8335Z" fill="url(#paint0_linear_1_102)"/>
</g>
<g clip-path="url(#clip1_1_102)">
<path d="M27.8512 38.4976C27.7263 39.8889 27.8783 41.2913 28.2983 42.6236C28.7183 43.956 29.3981 45.1919 30.2984 46.2601C30.733 46.7813 31.3482 47.1195 32.0211 47.2071C32.694 47.2947 33.3753 47.1253 33.9288 46.7328L34.9049 46.0277C34.9994 45.9594 35.0796 45.8732 35.1409 45.774C35.2021 45.6747 35.2432 45.5644 35.2618 45.4492C35.2994 45.2167 35.243 44.9787 35.1052 44.7878C35.0369 44.6932 34.9507 44.613 34.8514 44.5517C34.7521 44.4905 34.6418 44.4494 34.5267 44.4308C34.2941 44.3932 34.0562 44.4496 33.8652 44.5875L32.8882 45.2934C32.7002 45.4273 32.4679 45.4839 32.2394 45.4514C32.0109 45.419 31.8035 45.3 31.6602 45.1191C30.8915 44.1916 30.3188 43.1179 29.9765 41.9629C29.6342 40.808 29.5295 39.5956 29.6686 38.399C29.8078 37.2025 30.188 36.0465 30.7862 35.0009C31.3844 33.9553 32.1883 33.0417 33.1493 32.3154C34.1522 31.558 35.3059 31.0245 36.5326 30.7508C37.7592 30.4772 39.0302 30.4698 40.26 30.7291C41.8973 31.0655 43.4063 31.8576 44.613 33.0142C45.8197 34.1708 46.6751 35.6449 47.0807 37.2664C47.4862 38.888 47.4253 40.5912 46.9051 42.1796C46.3848 43.7681 45.4263 45.1773 44.1401 46.2448C43.9674 46.3865 43.7476 46.4578 43.5246 46.4446C43.3016 46.4313 43.0918 46.3345 42.937 46.1734L42.0975 45.3077C41.9333 45.1388 41.7088 45.0419 41.4733 45.0386C41.2377 45.0352 41.0105 45.1255 40.8416 45.2896C40.6726 45.4538 40.5758 45.6783 40.5724 45.9138C40.569 46.1494 40.6593 46.3766 40.8235 46.5455L41.6622 47.4103C42.1301 47.8895 42.7606 48.1759 43.4293 48.2132C44.0979 48.2504 44.7563 48.0357 45.2745 47.6114C46.6238 46.49 47.6753 45.0527 48.3356 43.4272C48.9959 41.8016 49.2445 40.0382 49.0594 38.2935C48.8742 36.5488 48.261 34.8768 47.2743 33.4261C46.2876 31.9754 44.9578 30.7908 43.4031 29.9776C41.8485 29.1644 40.1171 28.7477 38.3626 28.7646C36.6082 28.7815 34.8851 29.2314 33.3464 30.0743C31.8077 30.9173 30.501 32.1273 29.5423 33.5967C28.5837 35.0662 28.0028 36.7496 27.8512 38.4976ZM33.7491 35.1876C33.6026 35.0067 33.533 34.7755 33.5553 34.5438C33.5776 34.3121 33.6901 34.0984 33.8684 33.9488C34.0467 33.7991 34.2767 33.7255 34.5087 33.7438C34.7408 33.7621 34.9564 33.8708 35.1091 34.0465L38.1558 37.6773C38.5407 37.6094 38.9373 37.6704 39.284 37.8509C39.6308 38.0313 39.9083 38.3212 40.0735 38.6754C40.2387 39.0297 40.2824 39.4286 40.1978 39.8102C40.1132 40.1918 39.905 40.5348 39.6056 40.7861C39.3062 41.0374 38.9322 41.1828 38.5417 41.1998C38.1511 41.2169 37.7659 41.1046 37.4457 40.8804C37.1255 40.6561 36.8883 40.3325 36.7708 39.9597C36.6533 39.5869 36.662 39.1858 36.7958 38.8185L33.7491 35.1876Z" fill="#FFC52F"/>
</g>
<defs>
<linearGradient id="paint0_linear_1_102" x1="-25.4994" y1="6.00024" x2="70.5006" y2="45.0002" gradientUnits="userSpaceOnUse">
<stop stop-color="white"/>
<stop offset="1" stop-color="white" stop-opacity="0"/>
</linearGradient>
<clipPath id="clip0_1_102">
<rect width="36" height="36" fill="white" transform="translate(0 3.13757) rotate(-5)"/>
</clipPath>
<clipPath id="clip1_1_102">
<rect width="21.3074" height="21.3074" fill="white" transform="matrix(-0.996195 -0.0871557 -0.0871557 0.996195 50.0835 28.8571)"/>
</clipPath>
</defs>
</svg>
