<svg width="21" height="27" viewBox="0 0 21 27" fill="none" xmlns="http://www.w3.org/2000/svg">
<path fill-rule="evenodd" clip-rule="evenodd" d="M13.7176 23.6256C16.5085 19.9439 20.0241 14.5949 20.0241 11.0109C20.0241 5.0678 15.6962 0.25 10.3574 0.25C5.01868 0.25 0.690765 5.0678 0.690765 11.0109C0.690765 14.5949 4.20635 19.9439 6.99731 23.6256C8.45339 25.5464 9.18144 26.5068 10.3574 26.5068C11.5334 26.5068 12.2615 25.5464 13.7176 23.6256ZM10.3574 15.25C8.3554 15.25 6.73243 13.5711 6.73243 11.5C6.73243 9.42893 8.3554 7.75 10.3574 7.75C12.3595 7.75 13.9824 9.42893 13.9824 11.5C13.9824 13.5711 12.3595 15.25 10.3574 15.25Z" fill="url(#paint0_linear_101_21)"/>
<defs>
<linearGradient id="paint0_linear_101_21" x1="0.690765" y1="26.5068" x2="25.9711" y2="8.68656" gradientUnits="userSpaceOnUse">
<stop stop-color="#FFC52F"/>
<stop offset="1" stop-color="#EAAD11"/>
</linearGradient>
</defs>
</svg>
