<svg width="27" height="25" viewBox="0 0 27 25" fill="none" xmlns="http://www.w3.org/2000/svg">
<path d="M1.01374 5.2789C0.583328 6.88055 0.583328 9.09011 0.583328 12.5C0.583328 17.3434 0.583328 19.7651 1.81676 21.4628C2.21511 22.0111 2.69727 22.4932 3.24555 22.8916C4.94322 24.125 7.36492 24.125 12.2083 24.125H14.7917C19.6351 24.125 22.0568 24.125 23.7544 22.8916C24.3027 22.4932 24.7849 22.0111 25.1832 21.4628C26.4167 19.7651 26.4167 17.3434 26.4167 12.5C26.4167 9.07874 26.4167 6.86583 25.9819 5.26291L23.2659 7.97899C21.1575 10.0873 19.5053 11.7396 18.0428 12.8555C16.5458 13.9976 15.1344 14.6686 13.4998 14.6686C11.8653 14.6686 10.4538 13.9976 8.95687 12.8555C7.49437 11.7396 5.8421 10.0873 3.73376 7.97896L1.20831 5.45351L1.01374 5.2789Z" fill="url(#paint0_linear_101_61)"/>
<path d="M1.87499 3.45833L2.01559 3.57467L2.54133 4.0465L5.05137 6.55653C7.22351 8.72868 8.78516 10.2874 10.1321 11.3151C11.4567 12.3258 12.4592 12.7311 13.4998 12.7311C14.5404 12.7311 15.5429 12.3258 16.8675 11.3151C18.2145 10.2874 19.7761 8.72868 21.9483 6.55654L24.9293 3.57549L25.0916 3.41414C24.6932 2.86587 24.3027 2.50678 23.7544 2.10843C22.0568 0.875 19.6351 0.875 14.7917 0.875H12.2083C7.36492 0.875 4.94322 0.875 3.24555 2.10843C2.69727 2.50678 2.27334 2.91005 1.87499 3.45833Z" fill="url(#paint1_linear_101_61)"/>
<defs>
<linearGradient id="paint0_linear_101_61" x1="0.583328" y1="24.125" x2="24.306" y2="-1.1092" gradientUnits="userSpaceOnUse">
<stop stop-color="#FFC52F"/>
<stop offset="1" stop-color="#FFB800"/>
</linearGradient>
<linearGradient id="paint1_linear_101_61" x1="0.583328" y1="24.125" x2="24.306" y2="-1.1092" gradientUnits="userSpaceOnUse">
<stop stop-color="#FFC52F"/>
<stop offset="1" stop-color="#FFB800"/>
</linearGradient>
</defs>
</svg>
