<svg width="52" height="52" viewBox="0 0 52 52" fill="none" xmlns="http://www.w3.org/2000/svg">
<path fill-rule="evenodd" clip-rule="evenodd" d="M25.7759 51.5517C40.0115 51.5517 51.5517 40.0115 51.5517 25.7759C51.5517 11.5402 40.0115 0 25.7759 0C11.5402 0 0 11.5402 0 25.7759C0 40.0115 11.5402 51.5517 25.7759 51.5517ZM14.9046 17.3271L14.7716 17.217C15.1486 16.6979 15.5499 16.3162 16.0689 15.9391C17.676 14.7716 19.9684 14.7716 24.5532 14.7716H26.9986C31.5834 14.7716 33.8758 14.7716 35.4828 15.9391C36.0018 16.3162 36.3714 16.6561 36.7485 17.1751L36.5949 17.3279L33.7731 20.1497C31.7169 22.2059 30.2386 23.6814 28.9636 24.6542C27.7097 25.6109 26.7607 25.9946 25.7757 25.9946C24.7907 25.9946 23.8417 25.6109 22.5878 24.6542C21.3128 23.6814 19.8345 22.2059 17.7783 20.1497L15.4023 17.7737L14.9046 17.3271ZM13.5489 25.7759C13.5489 22.548 13.5489 20.4564 13.9563 18.9403L14.1405 19.1056L16.5311 21.4962C18.5268 23.492 20.0909 25.0561 21.4753 26.1124C22.8923 27.1935 24.2284 27.8287 25.7757 27.8287C27.323 27.8287 28.6591 27.1935 30.0761 26.1124C31.4605 25.0561 33.0245 23.492 35.0203 21.4962L37.5914 18.9252C38.0029 20.4425 38.0029 22.5373 38.0029 25.7759C38.0029 30.3607 38.0029 32.6531 36.8353 34.2601C36.4582 34.7791 36.0018 35.2355 35.4828 35.6126C33.8758 36.7802 31.5834 36.7802 26.9986 36.7802H24.5532C19.9684 36.7802 17.676 36.7802 16.0689 35.6126C15.5499 35.2355 15.0935 34.7791 14.7164 34.2601C13.5489 32.6531 13.5489 30.3607 13.5489 25.7759Z" fill="black"/>
</svg>
