<svg width="53" height="52" viewBox="0 0 53 52" fill="none" xmlns="http://www.w3.org/2000/svg">
<path fill-rule="evenodd" clip-rule="evenodd" d="M26.3276 0C12.0929 0 0.551758 11.5411 0.551758 25.7759C0.551758 40.0106 12.0929 51.5517 26.3276 51.5517C40.5623 51.5517 52.1035 40.0106 52.1035 25.7759C52.1035 11.5411 40.5623 0 26.3276 0ZM38.2747 17.5297C37.8881 21.6045 36.2084 31.496 35.3556 36.0604C34.9948 37.9936 34.2816 38.6402 33.5943 38.7025C32.0971 38.8399 30.9608 37.7122 29.5109 36.7628C27.2427 35.2764 25.9603 34.3506 23.7586 32.8986C21.2133 31.221 22.8629 30.2995 24.3128 28.7938C24.693 28.3986 31.2873 22.3992 31.4162 21.8558C31.4312 21.787 31.4484 21.5336 31.2959 21.4004C31.1434 21.2672 30.9222 21.3123 30.7632 21.3489C30.5355 21.4004 26.9119 23.7954 19.8901 28.5339C18.8612 29.2406 17.929 29.5842 17.0934 29.5671C16.1741 29.5477 14.4041 29.0472 13.0874 28.6177C11.4743 28.0935 10.1898 27.8143 10.3015 26.925C10.3595 26.4611 10.9974 25.9864 12.2175 25.5009C19.7311 22.2274 24.7424 20.0687 27.2491 19.0247C34.4084 16.0476 35.8948 15.53 36.8657 15.5128C38.0814 15.4956 38.3735 16.4987 38.2747 17.5297Z" fill="#FFC52F"/>
</svg>
