<svg width="52" height="52" viewBox="0 0 52 52" fill="none" xmlns="http://www.w3.org/2000/svg">
<path fill-rule="evenodd" clip-rule="evenodd" d="M25.8794 51.5517C40.115 51.5517 51.6552 40.0115 51.6552 25.7759C51.6552 11.5402 40.115 0 25.8794 0C11.6438 0 0.103516 11.5402 0.103516 25.7759C0.103516 40.0115 11.6438 51.5517 25.8794 51.5517ZM36.3822 21.6676C36.3822 21.4423 36.3822 21.2181 36.3674 20.995C37.3868 20.2579 38.2666 19.3454 38.9656 18.2995C38.0149 18.7204 37.0071 18.9964 35.974 19.1201C37.0611 18.4687 37.8743 17.4451 38.2634 16.2396C37.2408 16.8455 36.1231 17.2738 34.9567 17.5032C32.9845 15.4063 29.6863 15.3048 27.5893 17.2769C26.2379 18.5491 25.6637 20.4441 26.0835 22.2523C21.8969 22.0419 17.9959 20.0644 15.3523 16.8117C13.9701 19.191 14.6765 22.2344 16.9649 23.7624C16.1358 23.7381 15.3258 23.515 14.6014 23.111V23.1766C14.6014 25.6553 16.3484 27.7903 18.7785 28.281C18.0118 28.4893 17.2081 28.52 16.4277 28.3698C17.1098 30.4911 19.064 31.9441 21.2921 31.9864C19.4489 33.4351 17.1711 34.2219 14.8256 34.2197C14.4111 34.2187 13.9976 34.1944 13.5863 34.1447C15.9677 35.6727 18.7383 36.4827 21.567 36.4785V36.4827C31.1435 36.4827 36.3822 28.5485 36.3822 21.6676Z" fill="#FFC52F"/>
</svg>
